<svg xmlns="http://www.w3.org/2000/svg" xmlns:xlink="http://www.w3.org/1999/xlink" width="243" zoomAndPan="magnify" viewBox="0 0 182.25 43.499998" height="58" preserveAspectRatio="xMidYMid meet" version="1.0"><defs><g/><clipPath id="26468280c1"><path d="M 18 6 L 170 6 L 170 41.789062 L 18 41.789062 Z M 18 6 " clip-rule="nonzero"/></clipPath><clipPath id="1098559b12"><path d="M 15 4 L 170.351562 4 L 170.351562 41.789062 L 15 41.789062 Z M 15 4 " clip-rule="nonzero"/></clipPath><clipPath id="c374340eb5"><path d="M 11.261719 0 L 165 0 L 165 36 L 11.261719 36 Z M 11.261719 0 " clip-rule="nonzero"/></clipPath></defs><g clip-path="url(#26468280c1)"><path fill="#fc0000" d="M 152.148438 41.082031 L 35.320312 41.082031 C 25.800781 41.082031 18.003906 33.28125 18.003906 23.765625 C 18.003906 14.230469 25.800781 6.445312 35.320312 6.445312 L 152.128906 6.445312 C 161.664062 6.445312 169.464844 14.230469 169.464844 23.765625 C 169.464844 33.289062 161.664062 41.082031 152.148438 41.082031 Z M 152.148438 41.082031 " fill-opacity="1" fill-rule="nonzero"/></g><g clip-path="url(#1098559b12)"><path fill="#fc0000" d="M 165.738281 11.957031 L 165.746094 11.949219 L 159.359375 4.984375 L 158.3125 5.945312 L 159.617188 7.363281 C 157.335938 6.316406 154.800781 5.730469 152.128906 5.730469 L 35.320312 5.730469 C 25.386719 5.730469 17.304688 13.828125 17.304688 23.765625 C 17.304688 25.847656 17.664062 27.855469 18.316406 29.71875 L 16.761719 28.023438 L 15.714844 28.984375 L 21.328125 35.101562 C 24.628906 39.175781 29.671875 41.789062 35.320312 41.789062 L 152.148438 41.789062 C 162.082031 41.789062 170.144531 33.691406 170.144531 23.753906 C 170.144531 19.246094 168.488281 15.121094 165.738281 11.957031 Z M 148.074219 40.382812 L 142.316406 34.113281 L 141.269531 35.078125 L 146.140625 40.382812 L 138.042969 40.382812 L 132.292969 34.125 L 131.25 35.085938 L 136.113281 40.382812 L 128.109375 40.382812 L 122.351562 34.105469 L 121.304688 35.066406 L 126.1875 40.375 L 118.15625 40.375 L 112.398438 34.105469 L 111.351562 35.066406 L 116.226562 40.375 L 108.035156 40.375 L 102.277344 34.105469 L 101.230469 35.066406 L 106.105469 40.375 L 97.914062 40.375 L 92.164062 34.113281 L 91.117188 35.078125 L 95.984375 40.375 L 87.808594 40.375 L 82.050781 34.105469 L 81.003906 35.066406 L 85.878906 40.375 L 77.6875 40.375 L 71.929688 34.105469 L 70.882812 35.066406 L 75.757812 40.375 L 67.566406 40.375 L 61.816406 34.113281 L 60.769531 35.078125 L 65.636719 40.375 L 57.460938 40.375 L 51.703125 34.105469 L 50.65625 35.078125 L 55.53125 40.382812 L 47.339844 40.382812 L 41.589844 34.113281 L 40.542969 35.078125 L 45.417969 40.375 L 37.25 40.375 L 31.492188 34.105469 L 30.429688 35.066406 L 35.304688 40.375 C 30.753906 40.367188 26.628906 38.53125 23.632812 35.550781 L 23.648438 35.535156 L 22.316406 34.089844 C 20.0625 31.257812 18.707031 27.667969 18.707031 23.761719 C 18.707031 14.59375 26.152344 7.152344 35.304688 7.152344 L 152.128906 7.152344 C 156.757812 7.152344 160.941406 9.046875 163.960938 12.101562 L 164.691406 12.902344 C 166.445312 14.933594 167.722656 17.394531 168.332031 20.097656 L 163.960938 15.335938 L 162.914062 16.296875 L 168.699219 22.597656 C 168.726562 22.980469 168.742188 23.371094 168.742188 23.761719 C 168.742188 25.304688 168.527344 26.792969 168.136719 28.203125 L 163 22.617188 L 161.953125 23.578125 L 167.621094 29.75 C 166.871094 31.683594 165.773438 33.441406 164.394531 34.949219 L 158.960938 29.027344 L 157.914062 29.988281 L 163.390625 35.960938 C 161.828125 37.40625 159.980469 38.5625 157.949219 39.328125 L 152.300781 33.179688 L 151.253906 34.140625 L 156.460938 39.804688 C 155.074219 40.179688 153.617188 40.382812 152.113281 40.382812 Z M 148.074219 40.382812 " fill-opacity="1" fill-rule="nonzero"/></g><path fill="#f4f4f4" d="M 146.210938 34.609375 L 29.375 34.609375 C 19.855469 34.609375 12.066406 26.816406 12.066406 17.289062 C 12.066406 7.753906 19.855469 -0.0351562 29.375 -0.0351562 L 146.203125 -0.0351562 C 155.71875 -0.0351562 163.519531 7.765625 163.519531 17.28125 C 163.519531 26.816406 155.726562 34.609375 146.210938 34.609375 Z M 146.210938 34.609375 " fill-opacity="1" fill-rule="nonzero"/><g clip-path="url(#c374340eb5)"><path fill="#000000" d="M 146.210938 -0.742188 L 29.375 -0.742188 C 19.441406 -0.742188 11.359375 7.320312 11.359375 17.273438 C 11.359375 27.226562 19.441406 35.304688 29.375 35.304688 L 146.203125 35.304688 C 156.136719 35.304688 164.21875 27.207031 164.21875 17.273438 C 164.21875 7.339844 156.144531 -0.742188 146.210938 -0.742188 Z M 54.839844 33.894531 L 29.390625 33.894531 C 20.222656 33.894531 12.78125 26.433594 12.78125 17.28125 C 12.78125 8.128906 20.222656 0.679688 29.375 0.679688 L 54.839844 0.679688 L 56.226562 0.660156 L 146.203125 0.660156 C 155.371094 0.660156 162.8125 8.121094 162.8125 17.273438 C 162.8125 26.441406 155.355469 33.886719 146.203125 33.886719 L 54.839844 33.886719 Z M 54.839844 33.894531 " fill-opacity="1" fill-rule="nonzero"/></g><g fill="#000000" fill-opacity="0.7608"><g transform="translate(57.939188, 25.133976)"><g><path d="M 4.328125 0.140625 C 3.191406 0.140625 2.28125 -0.210938 1.59375 -0.921875 C 0.90625 -1.640625 0.5625 -2.625 0.5625 -3.875 L 0.5625 -11.078125 C 0.5625 -12.640625 0.867188 -13.8125 1.484375 -14.59375 C 2.109375 -15.382812 3.082031 -15.78125 4.40625 -15.78125 C 5.5625 -15.78125 6.488281 -15.460938 7.1875 -14.828125 C 7.894531 -14.203125 8.25 -13.296875 8.25 -12.109375 L 8.25 -9.40625 L 5.140625 -9.40625 L 5.140625 -11.71875 C 5.140625 -12.164062 5.082031 -12.472656 4.96875 -12.640625 C 4.863281 -12.816406 4.675781 -12.90625 4.40625 -12.90625 C 4.125 -12.90625 3.929688 -12.804688 3.828125 -12.609375 C 3.722656 -12.421875 3.671875 -12.140625 3.671875 -11.765625 L 3.671875 -3.90625 C 3.671875 -3.5 3.734375 -3.203125 3.859375 -3.015625 C 3.984375 -2.828125 4.164062 -2.734375 4.40625 -2.734375 C 4.894531 -2.734375 5.140625 -3.125 5.140625 -3.90625 L 5.140625 -6.734375 L 8.28125 -6.734375 L 8.28125 -3.78125 C 8.28125 -1.164062 6.960938 0.140625 4.328125 0.140625 Z M 4.328125 0.140625 "/></g></g></g><g fill="#000000" fill-opacity="0.7608"><g transform="translate(66.566124, 25.133976)"><g><path d="M 0.265625 0 L 1.78125 -15.640625 L 7.078125 -15.640625 L 8.578125 0 L 5.609375 0 L 5.390625 -2.53125 L 3.5 -2.53125 L 3.3125 0 Z M 3.734375 -5.03125 L 5.15625 -5.03125 L 4.453125 -12.984375 L 4.3125 -12.984375 Z M 3.734375 -5.03125 "/></g></g></g><g fill="#000000" fill-opacity="0.7608"><g transform="translate(75.393263, 25.133976)"><g><path d="M 2.03125 0 L 2.03125 -12.640625 L 0.1875 -12.640625 L 0.1875 -15.640625 L 7.03125 -15.640625 L 7.03125 -12.640625 L 5.171875 -12.640625 L 5.171875 0 Z M 2.03125 0 "/></g></g></g><g fill="#000000" fill-opacity="0.7608"><g transform="translate(82.600577, 25.133976)"><g><path d="M 0.265625 0 L 1.78125 -15.640625 L 7.078125 -15.640625 L 8.578125 0 L 5.609375 0 L 5.390625 -2.53125 L 3.5 -2.53125 L 3.3125 0 Z M 3.734375 -5.03125 L 5.15625 -5.03125 L 4.453125 -12.984375 L 4.3125 -12.984375 Z M 2.296875 -16.109375 L 2.296875 -18.09375 L 6.53125 -20.046875 L 6.53125 -16.953125 Z M 2.296875 -16.109375 "/></g></g></g><g fill="#000000" fill-opacity="0.7608"><g transform="translate(91.427715, 25.133976)"><g><path d="M 0.6875 0 L 0.6875 -15.640625 L 3.828125 -15.640625 L 3.828125 -2.65625 L 7.046875 -2.65625 L 7.046875 0 Z M 0.6875 0 "/></g></g></g><g fill="#000000" fill-opacity="0.7608"><g transform="translate(98.653227, 25.133976)"><g><path d="M 4.421875 0.140625 C 3.160156 0.140625 2.203125 -0.242188 1.546875 -1.015625 C 0.890625 -1.785156 0.5625 -2.867188 0.5625 -4.265625 L 0.5625 -11.703125 C 0.5625 -13.046875 0.890625 -14.0625 1.546875 -14.75 C 2.203125 -15.4375 3.160156 -15.78125 4.421875 -15.78125 C 5.679688 -15.78125 6.640625 -15.4375 7.296875 -14.75 C 7.953125 -14.0625 8.28125 -13.046875 8.28125 -11.703125 L 8.28125 -4.265625 C 8.28125 -2.847656 7.953125 -1.757812 7.296875 -1 C 6.640625 -0.238281 5.679688 0.140625 4.421875 0.140625 Z M 4.421875 -2.734375 C 4.703125 -2.734375 4.890625 -2.851562 4.984375 -3.09375 C 5.085938 -3.332031 5.140625 -3.671875 5.140625 -4.109375 L 5.140625 -11.765625 C 5.140625 -12.097656 5.09375 -12.367188 5 -12.578125 C 4.90625 -12.796875 4.71875 -12.90625 4.4375 -12.90625 C 3.914062 -12.90625 3.65625 -12.507812 3.65625 -11.71875 L 3.65625 -4.09375 C 3.65625 -3.644531 3.707031 -3.304688 3.8125 -3.078125 C 3.925781 -2.847656 4.128906 -2.734375 4.421875 -2.734375 Z M 4.421875 -2.734375 "/></g></g></g><g fill="#000000" fill-opacity="0.7608"><g transform="translate(107.498564, 25.133976)"><g><path d="M 3.90625 0.140625 C 2.78125 0.140625 1.941406 -0.253906 1.390625 -1.046875 C 0.835938 -1.835938 0.5625 -3.039062 0.5625 -4.65625 L 0.5625 -11.390625 C 0.5625 -12.835938 0.882812 -13.929688 1.53125 -14.671875 C 2.175781 -15.410156 3.132812 -15.78125 4.40625 -15.78125 C 5.4375 -15.78125 6.234375 -15.570312 6.796875 -15.15625 C 7.367188 -14.75 7.765625 -14.148438 7.984375 -13.359375 C 8.203125 -12.566406 8.3125 -11.554688 8.3125 -10.328125 L 5.265625 -10.328125 L 5.265625 -11.71875 C 5.265625 -12.09375 5.210938 -12.382812 5.109375 -12.59375 C 5.003906 -12.800781 4.816406 -12.90625 4.546875 -12.90625 C 3.953125 -12.90625 3.65625 -12.515625 3.65625 -11.734375 L 3.65625 -4.171875 C 3.65625 -3.691406 3.710938 -3.332031 3.828125 -3.09375 C 3.953125 -2.851562 4.171875 -2.734375 4.484375 -2.734375 C 4.785156 -2.734375 4.992188 -2.851562 5.109375 -3.09375 C 5.234375 -3.332031 5.296875 -3.691406 5.296875 -4.171875 L 5.296875 -6.40625 L 4.453125 -6.40625 L 4.453125 -9.09375 L 8.28125 -9.09375 L 8.28125 0 L 7.03125 0 L 6.5 -1.3125 C 5.9375 -0.34375 5.070312 0.140625 3.90625 0.140625 Z M 3.90625 0.140625 "/></g></g></g><g fill="#000000" fill-opacity="0.7608"><g transform="translate(116.325703, 25.133976)"><g><path d="M 4.421875 0.140625 C 3.160156 0.140625 2.203125 -0.242188 1.546875 -1.015625 C 0.890625 -1.785156 0.5625 -2.867188 0.5625 -4.265625 L 0.5625 -11.703125 C 0.5625 -13.046875 0.890625 -14.0625 1.546875 -14.75 C 2.203125 -15.4375 3.160156 -15.78125 4.421875 -15.78125 C 5.679688 -15.78125 6.640625 -15.4375 7.296875 -14.75 C 7.953125 -14.0625 8.28125 -13.046875 8.28125 -11.703125 L 8.28125 -4.265625 C 8.28125 -2.847656 7.953125 -1.757812 7.296875 -1 C 6.640625 -0.238281 5.679688 0.140625 4.421875 0.140625 Z M 4.421875 -2.734375 C 4.703125 -2.734375 4.890625 -2.851562 4.984375 -3.09375 C 5.085938 -3.332031 5.140625 -3.671875 5.140625 -4.109375 L 5.140625 -11.765625 C 5.140625 -12.097656 5.09375 -12.367188 5 -12.578125 C 4.90625 -12.796875 4.71875 -12.90625 4.4375 -12.90625 C 3.914062 -12.90625 3.65625 -12.507812 3.65625 -11.71875 L 3.65625 -4.09375 C 3.65625 -3.644531 3.707031 -3.304688 3.8125 -3.078125 C 3.925781 -2.847656 4.128906 -2.734375 4.421875 -2.734375 Z M 4.421875 -2.734375 "/></g></g></g><g fill="#fc0000" fill-opacity="1"><g transform="translate(57.134779, 24.329569)"><g><path d="M 4.328125 0.140625 C 3.191406 0.140625 2.28125 -0.210938 1.59375 -0.921875 C 0.90625 -1.640625 0.5625 -2.625 0.5625 -3.875 L 0.5625 -11.078125 C 0.5625 -12.640625 0.867188 -13.8125 1.484375 -14.59375 C 2.109375 -15.382812 3.082031 -15.78125 4.40625 -15.78125 C 5.5625 -15.78125 6.488281 -15.460938 7.1875 -14.828125 C 7.894531 -14.203125 8.25 -13.296875 8.25 -12.109375 L 8.25 -9.40625 L 5.140625 -9.40625 L 5.140625 -11.71875 C 5.140625 -12.164062 5.082031 -12.472656 4.96875 -12.640625 C 4.863281 -12.816406 4.675781 -12.90625 4.40625 -12.90625 C 4.125 -12.90625 3.929688 -12.804688 3.828125 -12.609375 C 3.722656 -12.421875 3.671875 -12.140625 3.671875 -11.765625 L 3.671875 -3.90625 C 3.671875 -3.5 3.734375 -3.203125 3.859375 -3.015625 C 3.984375 -2.828125 4.164062 -2.734375 4.40625 -2.734375 C 4.894531 -2.734375 5.140625 -3.125 5.140625 -3.90625 L 5.140625 -6.734375 L 8.28125 -6.734375 L 8.28125 -3.78125 C 8.28125 -1.164062 6.960938 0.140625 4.328125 0.140625 Z M 4.328125 0.140625 "/></g></g></g><g fill="#fc0000" fill-opacity="1"><g transform="translate(65.761715, 24.329569)"><g><path d="M 0.265625 0 L 1.78125 -15.640625 L 7.078125 -15.640625 L 8.578125 0 L 5.609375 0 L 5.390625 -2.53125 L 3.5 -2.53125 L 3.3125 0 Z M 3.734375 -5.03125 L 5.15625 -5.03125 L 4.453125 -12.984375 L 4.3125 -12.984375 Z M 3.734375 -5.03125 "/></g></g></g><g fill="#fc0000" fill-opacity="1"><g transform="translate(74.588854, 24.329569)"><g><path d="M 2.03125 0 L 2.03125 -12.640625 L 0.1875 -12.640625 L 0.1875 -15.640625 L 7.03125 -15.640625 L 7.03125 -12.640625 L 5.171875 -12.640625 L 5.171875 0 Z M 2.03125 0 "/></g></g></g><g fill="#fc0000" fill-opacity="1"><g transform="translate(81.796167, 24.329569)"><g><path d="M 0.265625 0 L 1.78125 -15.640625 L 7.078125 -15.640625 L 8.578125 0 L 5.609375 0 L 5.390625 -2.53125 L 3.5 -2.53125 L 3.3125 0 Z M 3.734375 -5.03125 L 5.15625 -5.03125 L 4.453125 -12.984375 L 4.3125 -12.984375 Z M 2.296875 -16.109375 L 2.296875 -18.09375 L 6.53125 -20.046875 L 6.53125 -16.953125 Z M 2.296875 -16.109375 "/></g></g></g><g fill="#fc0000" fill-opacity="1"><g transform="translate(90.623306, 24.329569)"><g><path d="M 0.6875 0 L 0.6875 -15.640625 L 3.828125 -15.640625 L 3.828125 -2.65625 L 7.046875 -2.65625 L 7.046875 0 Z M 0.6875 0 "/></g></g></g><g fill="#fc0000" fill-opacity="1"><g transform="translate(97.848818, 24.329569)"><g><path d="M 4.421875 0.140625 C 3.160156 0.140625 2.203125 -0.242188 1.546875 -1.015625 C 0.890625 -1.785156 0.5625 -2.867188 0.5625 -4.265625 L 0.5625 -11.703125 C 0.5625 -13.046875 0.890625 -14.0625 1.546875 -14.75 C 2.203125 -15.4375 3.160156 -15.78125 4.421875 -15.78125 C 5.679688 -15.78125 6.640625 -15.4375 7.296875 -14.75 C 7.953125 -14.0625 8.28125 -13.046875 8.28125 -11.703125 L 8.28125 -4.265625 C 8.28125 -2.847656 7.953125 -1.757812 7.296875 -1 C 6.640625 -0.238281 5.679688 0.140625 4.421875 0.140625 Z M 4.421875 -2.734375 C 4.703125 -2.734375 4.890625 -2.851562 4.984375 -3.09375 C 5.085938 -3.332031 5.140625 -3.671875 5.140625 -4.109375 L 5.140625 -11.765625 C 5.140625 -12.097656 5.09375 -12.367188 5 -12.578125 C 4.90625 -12.796875 4.71875 -12.90625 4.4375 -12.90625 C 3.914062 -12.90625 3.65625 -12.507812 3.65625 -11.71875 L 3.65625 -4.09375 C 3.65625 -3.644531 3.707031 -3.304688 3.8125 -3.078125 C 3.925781 -2.847656 4.128906 -2.734375 4.421875 -2.734375 Z M 4.421875 -2.734375 "/></g></g></g><g fill="#fc0000" fill-opacity="1"><g transform="translate(106.694155, 24.329569)"><g><path d="M 3.90625 0.140625 C 2.78125 0.140625 1.941406 -0.253906 1.390625 -1.046875 C 0.835938 -1.835938 0.5625 -3.039062 0.5625 -4.65625 L 0.5625 -11.390625 C 0.5625 -12.835938 0.882812 -13.929688 1.53125 -14.671875 C 2.175781 -15.410156 3.132812 -15.78125 4.40625 -15.78125 C 5.4375 -15.78125 6.234375 -15.570312 6.796875 -15.15625 C 7.367188 -14.75 7.765625 -14.148438 7.984375 -13.359375 C 8.203125 -12.566406 8.3125 -11.554688 8.3125 -10.328125 L 5.265625 -10.328125 L 5.265625 -11.71875 C 5.265625 -12.09375 5.210938 -12.382812 5.109375 -12.59375 C 5.003906 -12.800781 4.816406 -12.90625 4.546875 -12.90625 C 3.953125 -12.90625 3.65625 -12.515625 3.65625 -11.734375 L 3.65625 -4.171875 C 3.65625 -3.691406 3.710938 -3.332031 3.828125 -3.09375 C 3.953125 -2.851562 4.171875 -2.734375 4.484375 -2.734375 C 4.785156 -2.734375 4.992188 -2.851562 5.109375 -3.09375 C 5.234375 -3.332031 5.296875 -3.691406 5.296875 -4.171875 L 5.296875 -6.40625 L 4.453125 -6.40625 L 4.453125 -9.09375 L 8.28125 -9.09375 L 8.28125 0 L 7.03125 0 L 6.5 -1.3125 C 5.9375 -0.34375 5.070312 0.140625 3.90625 0.140625 Z M 3.90625 0.140625 "/></g></g></g><g fill="#fc0000" fill-opacity="1"><g transform="translate(115.521294, 24.329569)"><g><path d="M 4.421875 0.140625 C 3.160156 0.140625 2.203125 -0.242188 1.546875 -1.015625 C 0.890625 -1.785156 0.5625 -2.867188 0.5625 -4.265625 L 0.5625 -11.703125 C 0.5625 -13.046875 0.890625 -14.0625 1.546875 -14.75 C 2.203125 -15.4375 3.160156 -15.78125 4.421875 -15.78125 C 5.679688 -15.78125 6.640625 -15.4375 7.296875 -14.75 C 7.953125 -14.0625 8.28125 -13.046875 8.28125 -11.703125 L 8.28125 -4.265625 C 8.28125 -2.847656 7.953125 -1.757812 7.296875 -1 C 6.640625 -0.238281 5.679688 0.140625 4.421875 0.140625 Z M 4.421875 -2.734375 C 4.703125 -2.734375 4.890625 -2.851562 4.984375 -3.09375 C 5.085938 -3.332031 5.140625 -3.671875 5.140625 -4.109375 L 5.140625 -11.765625 C 5.140625 -12.097656 5.09375 -12.367188 5 -12.578125 C 4.90625 -12.796875 4.71875 -12.90625 4.4375 -12.90625 C 3.914062 -12.90625 3.65625 -12.507812 3.65625 -11.71875 L 3.65625 -4.09375 C 3.65625 -3.644531 3.707031 -3.304688 3.8125 -3.078125 C 3.925781 -2.847656 4.128906 -2.734375 4.421875 -2.734375 Z M 4.421875 -2.734375 "/></g></g></g></svg>