<svg xmlns="http://www.w3.org/2000/svg" xmlns:xlink="http://www.w3.org/1999/xlink" width="243" zoomAndPan="magnify" viewBox="0 0 182.25 43.499998" height="58" preserveAspectRatio="xMidYMid meet" version="1.0"><defs><g/><clipPath id="f795887b6b"><path d="M 18 6 L 170 6 L 170 41.789062 L 18 41.789062 Z M 18 6 " clip-rule="nonzero"/></clipPath><clipPath id="9eb06cf62a"><path d="M 15 4 L 170.351562 4 L 170.351562 41.789062 L 15 41.789062 Z M 15 4 " clip-rule="nonzero"/></clipPath><clipPath id="4f2edb1db3"><path d="M 11.261719 0 L 165 0 L 165 36 L 11.261719 36 Z M 11.261719 0 " clip-rule="nonzero"/></clipPath></defs><g clip-path="url(#f795887b6b)"><path fill="#fc0000" d="M 152.148438 41.082031 L 35.320312 41.082031 C 25.800781 41.082031 18.003906 33.28125 18.003906 23.765625 C 18.003906 14.230469 25.800781 6.445312 35.320312 6.445312 L 152.128906 6.445312 C 161.664062 6.445312 169.464844 14.230469 169.464844 23.765625 C 169.464844 33.289062 161.664062 41.082031 152.148438 41.082031 Z M 152.148438 41.082031 " fill-opacity="1" fill-rule="nonzero"/></g><g clip-path="url(#9eb06cf62a)"><path fill="#fc0000" d="M 165.738281 11.957031 L 165.746094 11.949219 L 159.359375 4.984375 L 158.3125 5.945312 L 159.617188 7.363281 C 157.335938 6.316406 154.800781 5.730469 152.128906 5.730469 L 35.320312 5.730469 C 25.386719 5.730469 17.304688 13.828125 17.304688 23.765625 C 17.304688 25.847656 17.664062 27.855469 18.316406 29.71875 L 16.761719 28.023438 L 15.714844 28.984375 L 21.328125 35.101562 C 24.628906 39.175781 29.671875 41.789062 35.320312 41.789062 L 152.148438 41.789062 C 162.082031 41.789062 170.144531 33.691406 170.144531 23.753906 C 170.144531 19.246094 168.488281 15.121094 165.738281 11.957031 Z M 148.074219 40.382812 L 142.316406 34.113281 L 141.269531 35.078125 L 146.140625 40.382812 L 138.042969 40.382812 L 132.292969 34.125 L 131.25 35.085938 L 136.113281 40.382812 L 128.109375 40.382812 L 122.351562 34.105469 L 121.304688 35.066406 L 126.1875 40.375 L 118.15625 40.375 L 112.398438 34.105469 L 111.351562 35.066406 L 116.226562 40.375 L 108.035156 40.375 L 102.277344 34.105469 L 101.230469 35.066406 L 106.105469 40.375 L 97.914062 40.375 L 92.164062 34.113281 L 91.117188 35.078125 L 95.984375 40.375 L 87.808594 40.375 L 82.050781 34.105469 L 81.003906 35.066406 L 85.878906 40.375 L 77.6875 40.375 L 71.929688 34.105469 L 70.882812 35.066406 L 75.757812 40.375 L 67.566406 40.375 L 61.816406 34.113281 L 60.769531 35.078125 L 65.636719 40.375 L 57.460938 40.375 L 51.703125 34.105469 L 50.65625 35.078125 L 55.53125 40.382812 L 47.339844 40.382812 L 41.589844 34.113281 L 40.542969 35.078125 L 45.417969 40.375 L 37.25 40.375 L 31.492188 34.105469 L 30.429688 35.066406 L 35.304688 40.375 C 30.753906 40.367188 26.628906 38.53125 23.632812 35.550781 L 23.648438 35.535156 L 22.316406 34.089844 C 20.0625 31.257812 18.707031 27.667969 18.707031 23.761719 C 18.707031 14.59375 26.152344 7.152344 35.304688 7.152344 L 152.128906 7.152344 C 156.757812 7.152344 160.941406 9.046875 163.960938 12.101562 L 164.691406 12.902344 C 166.445312 14.933594 167.722656 17.394531 168.332031 20.097656 L 163.960938 15.335938 L 162.914062 16.296875 L 168.699219 22.597656 C 168.726562 22.980469 168.742188 23.371094 168.742188 23.761719 C 168.742188 25.304688 168.527344 26.792969 168.136719 28.203125 L 163 22.617188 L 161.953125 23.578125 L 167.621094 29.75 C 166.871094 31.683594 165.773438 33.441406 164.394531 34.949219 L 158.960938 29.027344 L 157.914062 29.988281 L 163.390625 35.960938 C 161.828125 37.40625 159.980469 38.5625 157.949219 39.328125 L 152.300781 33.179688 L 151.253906 34.140625 L 156.460938 39.804688 C 155.074219 40.179688 153.617188 40.382812 152.113281 40.382812 Z M 148.074219 40.382812 " fill-opacity="1" fill-rule="nonzero"/></g><path fill="#f4f4f4" d="M 146.210938 34.609375 L 29.375 34.609375 C 19.855469 34.609375 12.066406 26.816406 12.066406 17.289062 C 12.066406 7.753906 19.855469 -0.0351562 29.375 -0.0351562 L 146.203125 -0.0351562 C 155.71875 -0.0351562 163.519531 7.765625 163.519531 17.28125 C 163.519531 26.816406 155.726562 34.609375 146.210938 34.609375 Z M 146.210938 34.609375 " fill-opacity="1" fill-rule="nonzero"/><g clip-path="url(#4f2edb1db3)"><path fill="#000000" d="M 146.210938 -0.742188 L 29.375 -0.742188 C 19.441406 -0.742188 11.359375 7.320312 11.359375 17.273438 C 11.359375 27.226562 19.441406 35.304688 29.375 35.304688 L 146.203125 35.304688 C 156.136719 35.304688 164.21875 27.207031 164.21875 17.273438 C 164.21875 7.339844 156.144531 -0.742188 146.210938 -0.742188 Z M 54.839844 33.894531 L 29.390625 33.894531 C 20.222656 33.894531 12.78125 26.433594 12.78125 17.28125 C 12.78125 8.128906 20.222656 0.679688 29.375 0.679688 L 54.839844 0.679688 L 56.226562 0.660156 L 146.203125 0.660156 C 155.371094 0.660156 162.8125 8.121094 162.8125 17.273438 C 162.8125 26.441406 155.355469 33.886719 146.203125 33.886719 L 54.839844 33.886719 Z M 54.839844 33.894531 " fill-opacity="1" fill-rule="nonzero"/></g><g fill="#000000" fill-opacity="0.7608"><g transform="translate(42.589735, 25.133976)"><g><path d="M 0.6875 0 L 0.6875 -15.640625 L 3.90625 -15.640625 L 5.359375 -8.15625 L 5.359375 -15.640625 L 8.375 -15.640625 L 8.375 0 L 5.3125 0 L 3.75 -7.828125 L 3.75 0 Z M 0.6875 0 "/></g></g></g><g fill="#000000" fill-opacity="0.7608"><g transform="translate(51.653476, 25.133976)"><g><path d="M 4.421875 0.140625 C 3.160156 0.140625 2.203125 -0.242188 1.546875 -1.015625 C 0.890625 -1.785156 0.5625 -2.867188 0.5625 -4.265625 L 0.5625 -11.703125 C 0.5625 -13.046875 0.890625 -14.0625 1.546875 -14.75 C 2.203125 -15.4375 3.160156 -15.78125 4.421875 -15.78125 C 5.679688 -15.78125 6.640625 -15.4375 7.296875 -14.75 C 7.953125 -14.0625 8.28125 -13.046875 8.28125 -11.703125 L 8.28125 -4.265625 C 8.28125 -2.847656 7.953125 -1.757812 7.296875 -1 C 6.640625 -0.238281 5.679688 0.140625 4.421875 0.140625 Z M 4.421875 -2.734375 C 4.703125 -2.734375 4.890625 -2.851562 4.984375 -3.09375 C 5.085938 -3.332031 5.140625 -3.671875 5.140625 -4.109375 L 5.140625 -11.765625 C 5.140625 -12.097656 5.09375 -12.367188 5 -12.578125 C 4.90625 -12.796875 4.71875 -12.90625 4.4375 -12.90625 C 3.914062 -12.90625 3.65625 -12.507812 3.65625 -11.71875 L 3.65625 -4.09375 C 3.65625 -3.644531 3.707031 -3.304688 3.8125 -3.078125 C 3.925781 -2.847656 4.128906 -2.734375 4.421875 -2.734375 Z M 4.421875 -2.734375 "/></g></g></g><g fill="#000000" fill-opacity="0.7608"><g transform="translate(60.498813, 25.133976)"><g><path d="M 4.40625 0.140625 C 2.988281 0.140625 1.960938 -0.207031 1.328125 -0.90625 C 0.691406 -1.613281 0.375 -2.75 0.375 -4.3125 L 0.375 -5.84375 L 3.453125 -5.84375 L 3.453125 -3.890625 C 3.453125 -3.117188 3.703125 -2.734375 4.203125 -2.734375 C 4.484375 -2.734375 4.675781 -2.8125 4.78125 -2.96875 C 4.894531 -3.132812 4.953125 -3.410156 4.953125 -3.796875 C 4.953125 -4.304688 4.890625 -4.726562 4.765625 -5.0625 C 4.648438 -5.394531 4.492188 -5.675781 4.296875 -5.90625 C 4.109375 -6.132812 3.773438 -6.484375 3.296875 -6.953125 L 1.953125 -8.296875 C 0.898438 -9.316406 0.375 -10.445312 0.375 -11.6875 C 0.375 -13.019531 0.679688 -14.035156 1.296875 -14.734375 C 1.910156 -15.429688 2.804688 -15.78125 3.984375 -15.78125 C 5.390625 -15.78125 6.398438 -15.40625 7.015625 -14.65625 C 7.640625 -13.914062 7.953125 -12.75 7.953125 -11.15625 L 4.765625 -11.15625 L 4.75 -12.234375 C 4.75 -12.441406 4.691406 -12.601562 4.578125 -12.71875 C 4.460938 -12.84375 4.300781 -12.90625 4.09375 -12.90625 C 3.851562 -12.90625 3.671875 -12.835938 3.546875 -12.703125 C 3.429688 -12.566406 3.375 -12.382812 3.375 -12.15625 C 3.375 -11.644531 3.660156 -11.117188 4.234375 -10.578125 L 6.0625 -8.828125 C 6.488281 -8.410156 6.835938 -8.015625 7.109375 -7.640625 C 7.390625 -7.273438 7.613281 -6.84375 7.78125 -6.34375 C 7.957031 -5.84375 8.046875 -5.242188 8.046875 -4.546875 C 8.046875 -3.003906 7.765625 -1.835938 7.203125 -1.046875 C 6.640625 -0.253906 5.707031 0.140625 4.40625 0.140625 Z M 4.40625 0.140625 "/></g></g></g><g fill="#000000" fill-opacity="0.7608"><g transform="translate(68.889143, 25.133976)"><g><path d="M 4.40625 0.140625 C 2.988281 0.140625 1.960938 -0.207031 1.328125 -0.90625 C 0.691406 -1.613281 0.375 -2.75 0.375 -4.3125 L 0.375 -5.84375 L 3.453125 -5.84375 L 3.453125 -3.890625 C 3.453125 -3.117188 3.703125 -2.734375 4.203125 -2.734375 C 4.484375 -2.734375 4.675781 -2.8125 4.78125 -2.96875 C 4.894531 -3.132812 4.953125 -3.410156 4.953125 -3.796875 C 4.953125 -4.304688 4.890625 -4.726562 4.765625 -5.0625 C 4.648438 -5.394531 4.492188 -5.675781 4.296875 -5.90625 C 4.109375 -6.132812 3.773438 -6.484375 3.296875 -6.953125 L 1.953125 -8.296875 C 0.898438 -9.316406 0.375 -10.445312 0.375 -11.6875 C 0.375 -13.019531 0.679688 -14.035156 1.296875 -14.734375 C 1.910156 -15.429688 2.804688 -15.78125 3.984375 -15.78125 C 5.390625 -15.78125 6.398438 -15.40625 7.015625 -14.65625 C 7.640625 -13.914062 7.953125 -12.75 7.953125 -11.15625 L 4.765625 -11.15625 L 4.75 -12.234375 C 4.75 -12.441406 4.691406 -12.601562 4.578125 -12.71875 C 4.460938 -12.84375 4.300781 -12.90625 4.09375 -12.90625 C 3.851562 -12.90625 3.671875 -12.835938 3.546875 -12.703125 C 3.429688 -12.566406 3.375 -12.382812 3.375 -12.15625 C 3.375 -11.644531 3.660156 -11.117188 4.234375 -10.578125 L 6.0625 -8.828125 C 6.488281 -8.410156 6.835938 -8.015625 7.109375 -7.640625 C 7.390625 -7.273438 7.613281 -6.84375 7.78125 -6.34375 C 7.957031 -5.84375 8.046875 -5.242188 8.046875 -4.546875 C 8.046875 -3.003906 7.765625 -1.835938 7.203125 -1.046875 C 6.640625 -0.253906 5.707031 0.140625 4.40625 0.140625 Z M 4.40625 0.140625 "/></g></g></g><g fill="#000000" fill-opacity="0.7608"><g transform="translate(77.279474, 25.133976)"><g><path d="M 0.265625 0 L 1.78125 -15.640625 L 7.078125 -15.640625 L 8.578125 0 L 5.609375 0 L 5.390625 -2.53125 L 3.5 -2.53125 L 3.3125 0 Z M 3.734375 -5.03125 L 5.15625 -5.03125 L 4.453125 -12.984375 L 4.3125 -12.984375 Z M 3.734375 -5.03125 "/></g></g></g><g fill="#000000" fill-opacity="0.7608"><g transform="translate(86.106612, 25.133976)"><g><path d="M 4.40625 0.140625 C 2.988281 0.140625 1.960938 -0.207031 1.328125 -0.90625 C 0.691406 -1.613281 0.375 -2.75 0.375 -4.3125 L 0.375 -5.84375 L 3.453125 -5.84375 L 3.453125 -3.890625 C 3.453125 -3.117188 3.703125 -2.734375 4.203125 -2.734375 C 4.484375 -2.734375 4.675781 -2.8125 4.78125 -2.96875 C 4.894531 -3.132812 4.953125 -3.410156 4.953125 -3.796875 C 4.953125 -4.304688 4.890625 -4.726562 4.765625 -5.0625 C 4.648438 -5.394531 4.492188 -5.675781 4.296875 -5.90625 C 4.109375 -6.132812 3.773438 -6.484375 3.296875 -6.953125 L 1.953125 -8.296875 C 0.898438 -9.316406 0.375 -10.445312 0.375 -11.6875 C 0.375 -13.019531 0.679688 -14.035156 1.296875 -14.734375 C 1.910156 -15.429688 2.804688 -15.78125 3.984375 -15.78125 C 5.390625 -15.78125 6.398438 -15.40625 7.015625 -14.65625 C 7.640625 -13.914062 7.953125 -12.75 7.953125 -11.15625 L 4.765625 -11.15625 L 4.75 -12.234375 C 4.75 -12.441406 4.691406 -12.601562 4.578125 -12.71875 C 4.460938 -12.84375 4.300781 -12.90625 4.09375 -12.90625 C 3.851562 -12.90625 3.671875 -12.835938 3.546875 -12.703125 C 3.429688 -12.566406 3.375 -12.382812 3.375 -12.15625 C 3.375 -11.644531 3.660156 -11.117188 4.234375 -10.578125 L 6.0625 -8.828125 C 6.488281 -8.410156 6.835938 -8.015625 7.109375 -7.640625 C 7.390625 -7.273438 7.613281 -6.84375 7.78125 -6.34375 C 7.957031 -5.84375 8.046875 -5.242188 8.046875 -4.546875 C 8.046875 -3.003906 7.765625 -1.835938 7.203125 -1.046875 C 6.640625 -0.253906 5.707031 0.140625 4.40625 0.140625 Z M 4.40625 0.140625 "/></g></g></g><g fill="#000000" fill-opacity="0.7608"><g transform="translate(94.496943, 25.133976)"><g/></g></g><g fill="#000000" fill-opacity="0.7608"><g transform="translate(98.755808, 25.133976)"><g><path d="M 0.6875 0 L 0.6875 -15.640625 L 3.828125 -15.640625 L 3.828125 -2.65625 L 7.046875 -2.65625 L 7.046875 0 Z M 0.6875 0 "/></g></g></g><g fill="#000000" fill-opacity="0.7608"><g transform="translate(105.98132, 25.133976)"><g><path d="M 4.421875 0.140625 C 3.160156 0.140625 2.203125 -0.242188 1.546875 -1.015625 C 0.890625 -1.785156 0.5625 -2.867188 0.5625 -4.265625 L 0.5625 -11.703125 C 0.5625 -13.046875 0.890625 -14.0625 1.546875 -14.75 C 2.203125 -15.4375 3.160156 -15.78125 4.421875 -15.78125 C 5.679688 -15.78125 6.640625 -15.4375 7.296875 -14.75 C 7.953125 -14.0625 8.28125 -13.046875 8.28125 -11.703125 L 8.28125 -4.265625 C 8.28125 -2.847656 7.953125 -1.757812 7.296875 -1 C 6.640625 -0.238281 5.679688 0.140625 4.421875 0.140625 Z M 4.421875 -2.734375 C 4.703125 -2.734375 4.890625 -2.851562 4.984375 -3.09375 C 5.085938 -3.332031 5.140625 -3.671875 5.140625 -4.109375 L 5.140625 -11.765625 C 5.140625 -12.097656 5.09375 -12.367188 5 -12.578125 C 4.90625 -12.796875 4.71875 -12.90625 4.4375 -12.90625 C 3.914062 -12.90625 3.65625 -12.507812 3.65625 -11.71875 L 3.65625 -4.09375 C 3.65625 -3.644531 3.707031 -3.304688 3.8125 -3.078125 C 3.925781 -2.847656 4.128906 -2.734375 4.421875 -2.734375 Z M 4.421875 -2.734375 "/></g></g></g><g fill="#000000" fill-opacity="0.7608"><g transform="translate(114.826661, 25.133976)"><g><path d="M 4.171875 0.140625 C 3.453125 0.140625 2.800781 0.00390625 2.21875 -0.265625 C 1.632812 -0.546875 1.175781 -0.957031 0.84375 -1.5 C 0.507812 -2.039062 0.34375 -2.691406 0.34375 -3.453125 L 0.34375 -7.375 L 3.421875 -7.375 L 3.421875 -3.640625 C 3.421875 -3.359375 3.476562 -3.132812 3.59375 -2.96875 C 3.707031 -2.8125 3.882812 -2.734375 4.125 -2.734375 C 4.363281 -2.734375 4.539062 -2.804688 4.65625 -2.953125 C 4.769531 -3.109375 4.828125 -3.328125 4.828125 -3.609375 L 4.828125 -15.640625 L 7.96875 -15.640625 L 7.96875 -3.90625 C 7.96875 -3.09375 7.804688 -2.378906 7.484375 -1.765625 C 7.171875 -1.160156 6.722656 -0.691406 6.140625 -0.359375 C 5.566406 -0.0234375 4.910156 0.140625 4.171875 0.140625 Z M 4.171875 0.140625 "/></g></g></g><g fill="#000000" fill-opacity="0.7608"><g transform="translate(123.307995, 25.133976)"><g><path d="M 0.265625 0 L 1.78125 -15.640625 L 7.078125 -15.640625 L 8.578125 0 L 5.609375 0 L 5.390625 -2.53125 L 3.5 -2.53125 L 3.3125 0 Z M 3.734375 -5.03125 L 5.15625 -5.03125 L 4.453125 -12.984375 L 4.3125 -12.984375 Z M 3.734375 -5.03125 "/></g></g></g><g fill="#000000" fill-opacity="0.7608"><g transform="translate(132.135134, 25.133976)"><g><path d="M 4.40625 0.140625 C 2.988281 0.140625 1.960938 -0.207031 1.328125 -0.90625 C 0.691406 -1.613281 0.375 -2.75 0.375 -4.3125 L 0.375 -5.84375 L 3.453125 -5.84375 L 3.453125 -3.890625 C 3.453125 -3.117188 3.703125 -2.734375 4.203125 -2.734375 C 4.484375 -2.734375 4.675781 -2.8125 4.78125 -2.96875 C 4.894531 -3.132812 4.953125 -3.410156 4.953125 -3.796875 C 4.953125 -4.304688 4.890625 -4.726562 4.765625 -5.0625 C 4.648438 -5.394531 4.492188 -5.675781 4.296875 -5.90625 C 4.109375 -6.132812 3.773438 -6.484375 3.296875 -6.953125 L 1.953125 -8.296875 C 0.898438 -9.316406 0.375 -10.445312 0.375 -11.6875 C 0.375 -13.019531 0.679688 -14.035156 1.296875 -14.734375 C 1.910156 -15.429688 2.804688 -15.78125 3.984375 -15.78125 C 5.390625 -15.78125 6.398438 -15.40625 7.015625 -14.65625 C 7.640625 -13.914062 7.953125 -12.75 7.953125 -11.15625 L 4.765625 -11.15625 L 4.75 -12.234375 C 4.75 -12.441406 4.691406 -12.601562 4.578125 -12.71875 C 4.460938 -12.84375 4.300781 -12.90625 4.09375 -12.90625 C 3.851562 -12.90625 3.671875 -12.835938 3.546875 -12.703125 C 3.429688 -12.566406 3.375 -12.382812 3.375 -12.15625 C 3.375 -11.644531 3.660156 -11.117188 4.234375 -10.578125 L 6.0625 -8.828125 C 6.488281 -8.410156 6.835938 -8.015625 7.109375 -7.640625 C 7.390625 -7.273438 7.613281 -6.84375 7.78125 -6.34375 C 7.957031 -5.84375 8.046875 -5.242188 8.046875 -4.546875 C 8.046875 -3.003906 7.765625 -1.835938 7.203125 -1.046875 C 6.640625 -0.253906 5.707031 0.140625 4.40625 0.140625 Z M 4.40625 0.140625 "/></g></g></g><g fill="#fc0000" fill-opacity="1"><g transform="translate(41.785326, 24.329569)"><g><path d="M 0.6875 0 L 0.6875 -15.640625 L 3.90625 -15.640625 L 5.359375 -8.15625 L 5.359375 -15.640625 L 8.375 -15.640625 L 8.375 0 L 5.3125 0 L 3.75 -7.828125 L 3.75 0 Z M 0.6875 0 "/></g></g></g><g fill="#fc0000" fill-opacity="1"><g transform="translate(50.849067, 24.329569)"><g><path d="M 4.421875 0.140625 C 3.160156 0.140625 2.203125 -0.242188 1.546875 -1.015625 C 0.890625 -1.785156 0.5625 -2.867188 0.5625 -4.265625 L 0.5625 -11.703125 C 0.5625 -13.046875 0.890625 -14.0625 1.546875 -14.75 C 2.203125 -15.4375 3.160156 -15.78125 4.421875 -15.78125 C 5.679688 -15.78125 6.640625 -15.4375 7.296875 -14.75 C 7.953125 -14.0625 8.28125 -13.046875 8.28125 -11.703125 L 8.28125 -4.265625 C 8.28125 -2.847656 7.953125 -1.757812 7.296875 -1 C 6.640625 -0.238281 5.679688 0.140625 4.421875 0.140625 Z M 4.421875 -2.734375 C 4.703125 -2.734375 4.890625 -2.851562 4.984375 -3.09375 C 5.085938 -3.332031 5.140625 -3.671875 5.140625 -4.109375 L 5.140625 -11.765625 C 5.140625 -12.097656 5.09375 -12.367188 5 -12.578125 C 4.90625 -12.796875 4.71875 -12.90625 4.4375 -12.90625 C 3.914062 -12.90625 3.65625 -12.507812 3.65625 -11.71875 L 3.65625 -4.09375 C 3.65625 -3.644531 3.707031 -3.304688 3.8125 -3.078125 C 3.925781 -2.847656 4.128906 -2.734375 4.421875 -2.734375 Z M 4.421875 -2.734375 "/></g></g></g><g fill="#fc0000" fill-opacity="1"><g transform="translate(59.694404, 24.329569)"><g><path d="M 4.40625 0.140625 C 2.988281 0.140625 1.960938 -0.207031 1.328125 -0.90625 C 0.691406 -1.613281 0.375 -2.75 0.375 -4.3125 L 0.375 -5.84375 L 3.453125 -5.84375 L 3.453125 -3.890625 C 3.453125 -3.117188 3.703125 -2.734375 4.203125 -2.734375 C 4.484375 -2.734375 4.675781 -2.8125 4.78125 -2.96875 C 4.894531 -3.132812 4.953125 -3.410156 4.953125 -3.796875 C 4.953125 -4.304688 4.890625 -4.726562 4.765625 -5.0625 C 4.648438 -5.394531 4.492188 -5.675781 4.296875 -5.90625 C 4.109375 -6.132812 3.773438 -6.484375 3.296875 -6.953125 L 1.953125 -8.296875 C 0.898438 -9.316406 0.375 -10.445312 0.375 -11.6875 C 0.375 -13.019531 0.679688 -14.035156 1.296875 -14.734375 C 1.910156 -15.429688 2.804688 -15.78125 3.984375 -15.78125 C 5.390625 -15.78125 6.398438 -15.40625 7.015625 -14.65625 C 7.640625 -13.914062 7.953125 -12.75 7.953125 -11.15625 L 4.765625 -11.15625 L 4.75 -12.234375 C 4.75 -12.441406 4.691406 -12.601562 4.578125 -12.71875 C 4.460938 -12.84375 4.300781 -12.90625 4.09375 -12.90625 C 3.851562 -12.90625 3.671875 -12.835938 3.546875 -12.703125 C 3.429688 -12.566406 3.375 -12.382812 3.375 -12.15625 C 3.375 -11.644531 3.660156 -11.117188 4.234375 -10.578125 L 6.0625 -8.828125 C 6.488281 -8.410156 6.835938 -8.015625 7.109375 -7.640625 C 7.390625 -7.273438 7.613281 -6.84375 7.78125 -6.34375 C 7.957031 -5.84375 8.046875 -5.242188 8.046875 -4.546875 C 8.046875 -3.003906 7.765625 -1.835938 7.203125 -1.046875 C 6.640625 -0.253906 5.707031 0.140625 4.40625 0.140625 Z M 4.40625 0.140625 "/></g></g></g><g fill="#fc0000" fill-opacity="1"><g transform="translate(68.084734, 24.329569)"><g><path d="M 4.40625 0.140625 C 2.988281 0.140625 1.960938 -0.207031 1.328125 -0.90625 C 0.691406 -1.613281 0.375 -2.75 0.375 -4.3125 L 0.375 -5.84375 L 3.453125 -5.84375 L 3.453125 -3.890625 C 3.453125 -3.117188 3.703125 -2.734375 4.203125 -2.734375 C 4.484375 -2.734375 4.675781 -2.8125 4.78125 -2.96875 C 4.894531 -3.132812 4.953125 -3.410156 4.953125 -3.796875 C 4.953125 -4.304688 4.890625 -4.726562 4.765625 -5.0625 C 4.648438 -5.394531 4.492188 -5.675781 4.296875 -5.90625 C 4.109375 -6.132812 3.773438 -6.484375 3.296875 -6.953125 L 1.953125 -8.296875 C 0.898438 -9.316406 0.375 -10.445312 0.375 -11.6875 C 0.375 -13.019531 0.679688 -14.035156 1.296875 -14.734375 C 1.910156 -15.429688 2.804688 -15.78125 3.984375 -15.78125 C 5.390625 -15.78125 6.398438 -15.40625 7.015625 -14.65625 C 7.640625 -13.914062 7.953125 -12.75 7.953125 -11.15625 L 4.765625 -11.15625 L 4.75 -12.234375 C 4.75 -12.441406 4.691406 -12.601562 4.578125 -12.71875 C 4.460938 -12.84375 4.300781 -12.90625 4.09375 -12.90625 C 3.851562 -12.90625 3.671875 -12.835938 3.546875 -12.703125 C 3.429688 -12.566406 3.375 -12.382812 3.375 -12.15625 C 3.375 -11.644531 3.660156 -11.117188 4.234375 -10.578125 L 6.0625 -8.828125 C 6.488281 -8.410156 6.835938 -8.015625 7.109375 -7.640625 C 7.390625 -7.273438 7.613281 -6.84375 7.78125 -6.34375 C 7.957031 -5.84375 8.046875 -5.242188 8.046875 -4.546875 C 8.046875 -3.003906 7.765625 -1.835938 7.203125 -1.046875 C 6.640625 -0.253906 5.707031 0.140625 4.40625 0.140625 Z M 4.40625 0.140625 "/></g></g></g><g fill="#fc0000" fill-opacity="1"><g transform="translate(76.475065, 24.329569)"><g><path d="M 0.265625 0 L 1.78125 -15.640625 L 7.078125 -15.640625 L 8.578125 0 L 5.609375 0 L 5.390625 -2.53125 L 3.5 -2.53125 L 3.3125 0 Z M 3.734375 -5.03125 L 5.15625 -5.03125 L 4.453125 -12.984375 L 4.3125 -12.984375 Z M 3.734375 -5.03125 "/></g></g></g><g fill="#fc0000" fill-opacity="1"><g transform="translate(85.302203, 24.329569)"><g><path d="M 4.40625 0.140625 C 2.988281 0.140625 1.960938 -0.207031 1.328125 -0.90625 C 0.691406 -1.613281 0.375 -2.75 0.375 -4.3125 L 0.375 -5.84375 L 3.453125 -5.84375 L 3.453125 -3.890625 C 3.453125 -3.117188 3.703125 -2.734375 4.203125 -2.734375 C 4.484375 -2.734375 4.675781 -2.8125 4.78125 -2.96875 C 4.894531 -3.132812 4.953125 -3.410156 4.953125 -3.796875 C 4.953125 -4.304688 4.890625 -4.726562 4.765625 -5.0625 C 4.648438 -5.394531 4.492188 -5.675781 4.296875 -5.90625 C 4.109375 -6.132812 3.773438 -6.484375 3.296875 -6.953125 L 1.953125 -8.296875 C 0.898438 -9.316406 0.375 -10.445312 0.375 -11.6875 C 0.375 -13.019531 0.679688 -14.035156 1.296875 -14.734375 C 1.910156 -15.429688 2.804688 -15.78125 3.984375 -15.78125 C 5.390625 -15.78125 6.398438 -15.40625 7.015625 -14.65625 C 7.640625 -13.914062 7.953125 -12.75 7.953125 -11.15625 L 4.765625 -11.15625 L 4.75 -12.234375 C 4.75 -12.441406 4.691406 -12.601562 4.578125 -12.71875 C 4.460938 -12.84375 4.300781 -12.90625 4.09375 -12.90625 C 3.851562 -12.90625 3.671875 -12.835938 3.546875 -12.703125 C 3.429688 -12.566406 3.375 -12.382812 3.375 -12.15625 C 3.375 -11.644531 3.660156 -11.117188 4.234375 -10.578125 L 6.0625 -8.828125 C 6.488281 -8.410156 6.835938 -8.015625 7.109375 -7.640625 C 7.390625 -7.273438 7.613281 -6.84375 7.78125 -6.34375 C 7.957031 -5.84375 8.046875 -5.242188 8.046875 -4.546875 C 8.046875 -3.003906 7.765625 -1.835938 7.203125 -1.046875 C 6.640625 -0.253906 5.707031 0.140625 4.40625 0.140625 Z M 4.40625 0.140625 "/></g></g></g><g fill="#fc0000" fill-opacity="1"><g transform="translate(93.692534, 24.329569)"><g/></g></g><g fill="#fc0000" fill-opacity="1"><g transform="translate(97.951399, 24.329569)"><g><path d="M 0.6875 0 L 0.6875 -15.640625 L 3.828125 -15.640625 L 3.828125 -2.65625 L 7.046875 -2.65625 L 7.046875 0 Z M 0.6875 0 "/></g></g></g><g fill="#fc0000" fill-opacity="1"><g transform="translate(105.176911, 24.329569)"><g><path d="M 4.421875 0.140625 C 3.160156 0.140625 2.203125 -0.242188 1.546875 -1.015625 C 0.890625 -1.785156 0.5625 -2.867188 0.5625 -4.265625 L 0.5625 -11.703125 C 0.5625 -13.046875 0.890625 -14.0625 1.546875 -14.75 C 2.203125 -15.4375 3.160156 -15.78125 4.421875 -15.78125 C 5.679688 -15.78125 6.640625 -15.4375 7.296875 -14.75 C 7.953125 -14.0625 8.28125 -13.046875 8.28125 -11.703125 L 8.28125 -4.265625 C 8.28125 -2.847656 7.953125 -1.757812 7.296875 -1 C 6.640625 -0.238281 5.679688 0.140625 4.421875 0.140625 Z M 4.421875 -2.734375 C 4.703125 -2.734375 4.890625 -2.851562 4.984375 -3.09375 C 5.085938 -3.332031 5.140625 -3.671875 5.140625 -4.109375 L 5.140625 -11.765625 C 5.140625 -12.097656 5.09375 -12.367188 5 -12.578125 C 4.90625 -12.796875 4.71875 -12.90625 4.4375 -12.90625 C 3.914062 -12.90625 3.65625 -12.507812 3.65625 -11.71875 L 3.65625 -4.09375 C 3.65625 -3.644531 3.707031 -3.304688 3.8125 -3.078125 C 3.925781 -2.847656 4.128906 -2.734375 4.421875 -2.734375 Z M 4.421875 -2.734375 "/></g></g></g><g fill="#fc0000" fill-opacity="1"><g transform="translate(114.022252, 24.329569)"><g><path d="M 4.171875 0.140625 C 3.453125 0.140625 2.800781 0.00390625 2.21875 -0.265625 C 1.632812 -0.546875 1.175781 -0.957031 0.84375 -1.5 C 0.507812 -2.039062 0.34375 -2.691406 0.34375 -3.453125 L 0.34375 -7.375 L 3.421875 -7.375 L 3.421875 -3.640625 C 3.421875 -3.359375 3.476562 -3.132812 3.59375 -2.96875 C 3.707031 -2.8125 3.882812 -2.734375 4.125 -2.734375 C 4.363281 -2.734375 4.539062 -2.804688 4.65625 -2.953125 C 4.769531 -3.109375 4.828125 -3.328125 4.828125 -3.609375 L 4.828125 -15.640625 L 7.96875 -15.640625 L 7.96875 -3.90625 C 7.96875 -3.09375 7.804688 -2.378906 7.484375 -1.765625 C 7.171875 -1.160156 6.722656 -0.691406 6.140625 -0.359375 C 5.566406 -0.0234375 4.910156 0.140625 4.171875 0.140625 Z M 4.171875 0.140625 "/></g></g></g><g fill="#fc0000" fill-opacity="1"><g transform="translate(122.503586, 24.329569)"><g><path d="M 0.265625 0 L 1.78125 -15.640625 L 7.078125 -15.640625 L 8.578125 0 L 5.609375 0 L 5.390625 -2.53125 L 3.5 -2.53125 L 3.3125 0 Z M 3.734375 -5.03125 L 5.15625 -5.03125 L 4.453125 -12.984375 L 4.3125 -12.984375 Z M 3.734375 -5.03125 "/></g></g></g><g fill="#fc0000" fill-opacity="1"><g transform="translate(131.330725, 24.329569)"><g><path d="M 4.40625 0.140625 C 2.988281 0.140625 1.960938 -0.207031 1.328125 -0.90625 C 0.691406 -1.613281 0.375 -2.75 0.375 -4.3125 L 0.375 -5.84375 L 3.453125 -5.84375 L 3.453125 -3.890625 C 3.453125 -3.117188 3.703125 -2.734375 4.203125 -2.734375 C 4.484375 -2.734375 4.675781 -2.8125 4.78125 -2.96875 C 4.894531 -3.132812 4.953125 -3.410156 4.953125 -3.796875 C 4.953125 -4.304688 4.890625 -4.726562 4.765625 -5.0625 C 4.648438 -5.394531 4.492188 -5.675781 4.296875 -5.90625 C 4.109375 -6.132812 3.773438 -6.484375 3.296875 -6.953125 L 1.953125 -8.296875 C 0.898438 -9.316406 0.375 -10.445312 0.375 -11.6875 C 0.375 -13.019531 0.679688 -14.035156 1.296875 -14.734375 C 1.910156 -15.429688 2.804688 -15.78125 3.984375 -15.78125 C 5.390625 -15.78125 6.398438 -15.40625 7.015625 -14.65625 C 7.640625 -13.914062 7.953125 -12.75 7.953125 -11.15625 L 4.765625 -11.15625 L 4.75 -12.234375 C 4.75 -12.441406 4.691406 -12.601562 4.578125 -12.71875 C 4.460938 -12.84375 4.300781 -12.90625 4.09375 -12.90625 C 3.851562 -12.90625 3.671875 -12.835938 3.546875 -12.703125 C 3.429688 -12.566406 3.375 -12.382812 3.375 -12.15625 C 3.375 -11.644531 3.660156 -11.117188 4.234375 -10.578125 L 6.0625 -8.828125 C 6.488281 -8.410156 6.835938 -8.015625 7.109375 -7.640625 C 7.390625 -7.273438 7.613281 -6.84375 7.78125 -6.34375 C 7.957031 -5.84375 8.046875 -5.242188 8.046875 -4.546875 C 8.046875 -3.003906 7.765625 -1.835938 7.203125 -1.046875 C 6.640625 -0.253906 5.707031 0.140625 4.40625 0.140625 Z M 4.40625 0.140625 "/></g></g></g></svg>